<?xml version="1.0" standalone="no"?>
<!DOCTYPE svg PUBLIC "-//W3C//DTD SVG 20010904//EN"
 "http://www.w3.org/TR/2001/REC-SVG-20010904/DTD/svg10.dtd">
<svg version="1.0" xmlns="http://www.w3.org/2000/svg"
 width="300.000000pt" height="300.000000pt" viewBox="0 0 300.000000 300.000000"
 preserveAspectRatio="xMidYMid meet">
<metadata>
Created by potrace 1.11, written by Peter Selinger 2001-2013
</metadata>
<g transform="translate(0.000000,300.000000) scale(0.100000,-0.100000)"
fill="#000000" stroke="none">
<path d="M1285 2984 c-464 -69 -861 -342 -1093 -751 -255 -450 -255 -1016 0
-1466 50 -88 151 -231 179 -254 13 -10 69 42 343 316 l328 328 -35 49 c-92
130 -131 257 -131 429 0 131 15 203 64 311 93 206 275 359 501 420 88 24 280
24 368 0 86 -23 182 -67 244 -112 l50 -36 198 198 c165 165 196 200 186 213
-23 28 -166 129 -254 179 -280 159 -629 224 -948 176z"/>
<path d="M2276 2181 l-328 -328 35 -49 c50 -70 84 -142 109 -231 31 -110 31
-286 0 -396 -74 -260 -269 -455 -529 -529 -101 -29 -285 -31 -382 -4 -86 23
-182 68 -244 112 l-50 36 -198 -198 c-228 -228 -219 -196 -87 -294 599 -447
1431 -387 1958 140 527 527 587 1359 140 1958 -99 133 -48 160 -424 -217z"/>
</g>
</svg>
