<svg width="96" height="96" viewBox="0 0 96 96" fill="none" xmlns="http://www.w3.org/2000/svg">
<circle cx="48.1443" cy="48.3847" r="47.5" fill="white"/>
<path fill-rule="evenodd" clip-rule="evenodd" d="M79.6745 12.858C81.0725 14.0997 82.3967 15.4226 83.6397 16.8194L64.6168 35.5899C73.2399 46.0679 72.6092 61.4936 62.7247 71.2469C53.0066 80.836 37.7323 81.5988 27.1288 73.536L16.6139 83.9113C15.2159 82.6696 13.8917 81.3467 12.6487 79.9499L32.2839 60.5753C23.6609 50.0972 24.2915 34.6716 34.176 24.9182C43.8941 15.3291 59.1685 14.5663 69.7719 22.6292L79.6745 12.858ZM38.166 58.7083L40.161 60.6768L31.1614 69.5569C39.5187 75.4695 51.2247 74.7202 58.7348 67.3099C67.0893 59.0662 67.0893 45.7005 58.7348 37.4568L56.7398 35.4883L65.7393 26.6083C57.3821 20.6956 45.676 21.4449 38.166 28.8553C29.8114 37.0989 29.8114 50.4646 38.166 58.7083Z" fill="black"/>
</svg>
