<svg width="101" height="101" viewBox="0 0 101 101" fill="none" xmlns="http://www.w3.org/2000/svg">
<path d="M100.32 50.1309C100.32 77.7451 77.9343 100.131 50.3201 100.131C22.7058 100.131 0.320068 77.7451 0.320068 50.1309C0.320068 22.5166 22.7058 0.130859 50.3201 0.130859C77.9343 0.130859 100.32 22.5166 100.32 50.1309Z" fill="#D9D9D9"/>
<path fill-rule="evenodd" clip-rule="evenodd" d="M50.3201 97.1309C76.2775 97.1309 97.3201 76.0882 97.3201 50.1309C97.3201 37.4374 92.2881 25.9191 84.11 17.4622L65.0895 36.4827C74.3951 46.8881 74.0513 62.8763 64.0584 72.8692C54.2351 82.6925 38.6182 83.1914 28.2065 74.3658L18.1635 84.4087C26.5705 92.2985 37.881 97.1309 50.3201 97.1309ZM16.0422 82.2874L35.5506 62.779C26.2451 52.3737 26.5888 36.3855 36.5817 26.3925C46.4051 16.5692 62.0219 16.0703 72.4337 24.8959L81.957 15.3726C73.6064 7.76749 62.5047 3.13086 50.3201 3.13086C24.3627 3.13086 3.32007 24.1735 3.32007 50.1309C3.32007 62.57 8.1524 73.8804 16.0422 82.2874ZM50.3201 100.131C77.9343 100.131 100.32 77.7451 100.32 50.1309C100.32 22.5166 77.9343 0.130859 50.3201 0.130859C22.7058 0.130859 0.320068 22.5166 0.320068 50.1309C0.320068 77.7451 22.7058 100.131 50.3201 100.131Z" fill="black"/>
</svg>